<svg width="47" height="45" viewBox="0 0 47 45" fill="none" xmlns="http://www.w3.org/2000/svg">
<path d="M5.80273 16.26L22.053 6.8208V25.6961L5.80273 35.1353V16.26Z" fill="#042F84"/>
<path d="M22.0527 6.8208V25.6961L38.303 35.1353V16.26L22.0527 6.8208Z" fill="#003399"/>
<path opacity="0.15" d="M22.053 14.9946L5.80273 16.2599V35.1352L22.053 33.87L38.3033 35.1352V24.4308L22.053 14.9946Z" fill="#000D27"/>
<path d="M22.0527 25.6959L38.303 16.2598V35.1351L22.0527 44.5713V25.6959Z" fill="#003399"/>
<path d="M5.80273 16.2598V35.1351L22.053 44.5713V25.6959L5.80273 16.2598Z" fill="#042F84"/>
<g opacity="0.8">
<path opacity="0.8" d="M15.3519 40.6788L12.5078 39.0282V20.1528L15.3519 21.8034V40.6788Z" fill="#A3A1C7"/>
</g>
<g opacity="0.8">
<path opacity="0.8" d="M31.6019 39.0282L28.7578 40.6788V21.8034L31.6019 20.1528V39.0282Z" fill="#FFE0E1"/>
</g>
<path opacity="0.1" d="M38.303 16.2598V26.9217L30.1779 31.6428L22.0527 25.6959L38.303 16.2598Z" fill="black"/>
<path opacity="0.1" d="M5.80274 16.2598L4.0625 23.1442L20.3128 32.5804L22.053 25.6959L5.80274 16.2598Z" fill="black"/>
<path d="M5.80282 16.2598L0 22.325L16.2503 31.7642L22.0531 25.6959L5.80282 16.2598Z" fill="#073CA7"/>
<path d="M5.80279 16.26L0.512695 9.89434L16.772 0.467285L22.0531 6.82076L5.80279 16.26Z" fill="#073CA7"/>
<path d="M22.0527 6.82073L26.5587 0L42.809 9.43919L38.303 16.2599L22.0527 6.82073Z" fill="#073CA7"/>
<path d="M38.303 16.2598L46.4282 20.9778L30.1779 30.417L22.0527 25.6959L38.303 16.2598Z" fill="#073CA7"/>
</svg>
